<svg xmlns="http://www.w3.org/2000/svg" viewBox="0 0 200 196"><rect width="200" height="196" fill="#f4efe4"/><ellipse cx="100" cy="172" rx="74" ry="7" fill="#e6c079"/><path d="M86 112 L74 132 L70 148" fill="none" stroke="#d1926a" stroke-width="9" stroke-linecap="round" stroke-linejoin="round"/><path d="M88 160 L104 140 L92 128" fill="none" stroke="#d1926a" stroke-width="11" stroke-linecap="round" stroke-linejoin="round"/><path d="M86 158 L112 146" fill="none" stroke="#33424e" stroke-width="16" stroke-linecap="round"/><path d="M112 146 L132 158" fill="none" stroke="#e8ab80" stroke-width="13" stroke-linecap="round"/><circle cx="86" cy="156" r="11" fill="#33424e"/><path d="M95 156 L97 108 L75 108 L77 156 Z" fill="#2e6f6a"/><circle cx="86" cy="108" r="11" fill="#2e6f6a"/><circle cx="86" cy="156" r="9" fill="#2e6f6a"/><circle cx="86" cy="112" r="8" fill="#2e6f6a"/><path d="M86 112 L100 132 L112 146" fill="none" stroke="#e8ab80" stroke-width="9" stroke-linecap="round" stroke-linejoin="round"/><circle cx="112" cy="146" r="5.5" fill="#e8ab80"/><ellipse cx="132" cy="159" rx="8.5" ry="4.5" fill="#e8ab80"/><circle cx="73" cy="92" r="3.6" fill="#e8ab80"/><circle cx="86" cy="90" r="14" fill="#e8ab80"/><circle cx="92" cy="89" r="1.7" fill="#3a2b24"/><path d="M99.5 89 l4 2 l-4 2" fill="none" stroke="#d1926a" stroke-width="2.4" stroke-linecap="round" stroke-linejoin="round"/><path d="M72 90 Q72 74 86 74 Q100 74 100 90 Q93 81 86 82 Q79 81 72 90 Z" fill="#3a2b24"/><path d="M112 110 Q124 122 116 134" fill="none" stroke="#c9832e" stroke-width="3.4" stroke-linecap="round"/><path d="M117.4 127.1 L116 134 L122.5 131.5" fill="none" stroke="#c9832e" stroke-width="3.4" stroke-linecap="round" stroke-linejoin="round"/></svg>