<svg xmlns="http://www.w3.org/2000/svg" viewBox="0 0 200 196"><rect width="200" height="196" fill="#f4efe4"/><ellipse cx="100" cy="172" rx="74" ry="7" fill="#e6c079"/><path d="M100 72 L92 92 L92 116" fill="none" stroke="#d1926a" stroke-width="9" stroke-linecap="round" stroke-linejoin="round"/><path d="M97 120 L97 146 L97 168" fill="none" stroke="#d1926a" stroke-width="11" stroke-linecap="round" stroke-linejoin="round"/><path d="M103 120 L103 146" fill="none" stroke="#33424e" stroke-width="16" stroke-linecap="round"/><path d="M103 146 L103 168" fill="none" stroke="#e8ab80" stroke-width="13" stroke-linecap="round"/><circle cx="100" cy="118" r="11" fill="#33424e"/><path d="M109 118 L111 66 L89 66 L91 118 Z" fill="#2e6f6a"/><circle cx="100" cy="66" r="11" fill="#2e6f6a"/><circle cx="100" cy="118" r="9" fill="#2e6f6a"/><circle cx="100" cy="72" r="8" fill="#2e6f6a"/><path d="M100 72 L110 92 L110 116" fill="none" stroke="#e8ab80" stroke-width="9" stroke-linecap="round" stroke-linejoin="round"/><circle cx="110" cy="116" r="5.5" fill="#e8ab80"/><ellipse cx="97" cy="168" rx="8.5" ry="4.5" fill="#e8ab80"/><ellipse cx="103" cy="168" rx="8.5" ry="4.5" fill="#e8ab80"/><circle cx="87" cy="48" r="3.6" fill="#e8ab80"/><circle cx="100" cy="46" r="14" fill="#e8ab80"/><circle cx="106" cy="45" r="1.7" fill="#3a2b24"/><path d="M113.5 45 l4 2 l-4 2" fill="none" stroke="#d1926a" stroke-width="2.4" stroke-linecap="round" stroke-linejoin="round"/><path d="M86 46 Q86 30 100 30 Q114 30 114 46 Q107 37 100 38 Q93 37 86 46 Z" fill="#3a2b24"/><path d="M128 130 Q118 150 96 150" fill="none" stroke="#c9832e" stroke-width="3.4" stroke-linecap="round"/><path d="M102.1 146.6 L96 150 L102.1 153.4" fill="none" stroke="#c9832e" stroke-width="3.4" stroke-linecap="round" stroke-linejoin="round"/><path d="M72 150 Q82 132 100 130" fill="none" stroke="#c9832e" stroke-width="3.4" stroke-linecap="round"/><path d="M93.9 133.4 L100 130 L93.9 126.6" fill="none" stroke="#c9832e" stroke-width="3.4" stroke-linecap="round" stroke-linejoin="round"/></svg>