<svg xmlns="http://www.w3.org/2000/svg" viewBox="0 0 200 196"><rect width="200" height="196" fill="#f4efe4"/><ellipse cx="100" cy="172" rx="74" ry="7" fill="#e6c079"/><path d="M82 158 L118 157" fill="none" stroke="#33424e" stroke-width="16" stroke-linecap="round"/><path d="M118 157 L152 160" fill="none" stroke="#e8ab80" stroke-width="13" stroke-linecap="round"/><circle cx="82" cy="156" r="11" fill="#33424e"/><path d="M88.9 155.1 L96.9 107.4 L75.1 104.6 L71.1 152.9 Z" fill="#2e6f6a"/><circle cx="86" cy="106" r="11" fill="#2e6f6a"/><circle cx="80" cy="154" r="9" fill="#2e6f6a"/><circle cx="86" cy="110" r="8" fill="#2e6f6a"/><path d="M86 110 L110 122 L134 135" fill="none" stroke="#e8ab80" stroke-width="9" stroke-linecap="round" stroke-linejoin="round"/><circle cx="134" cy="135" r="5.5" fill="#e8ab80"/><ellipse cx="153" cy="159" rx="8.5" ry="4.5" fill="#e8ab80"/><circle cx="77" cy="90" r="3.6" fill="#e8ab80"/><circle cx="90" cy="88" r="14" fill="#e8ab80"/><circle cx="96" cy="87" r="1.7" fill="#3a2b24"/><path d="M103.5 87 l4 2 l-4 2" fill="none" stroke="#d1926a" stroke-width="2.4" stroke-linecap="round" stroke-linejoin="round"/><path d="M76 88 Q76 72 90 72 Q104 72 104 88 Q97 79 90 80 Q83 79 76 88 Z" fill="#3a2b24"/><path d="M106 74 Q136 78 150 118" fill="none" stroke="#c9832e" stroke-width="3.4" stroke-linecap="round"/><path d="M148.9 111.1 L150 118 L155.3 113.4" fill="none" stroke="#c9832e" stroke-width="3.4" stroke-linecap="round" stroke-linejoin="round"/></svg>