<svg xmlns="http://www.w3.org/2000/svg" viewBox="0 0 200 196"><rect width="200" height="196" fill="#f4efe4"/><ellipse cx="100" cy="172" rx="74" ry="7" fill="#e6c079"/><path d="M74 150 L60 138 L46 134" fill="none" stroke="#d1926a" stroke-width="9" stroke-linecap="round" stroke-linejoin="round"/><path d="M110 150 L120 164 L104 166" fill="none" stroke="#d1926a" stroke-width="11" stroke-linecap="round" stroke-linejoin="round"/><path d="M110 150 L134 146" fill="none" stroke="#33424e" stroke-width="16" stroke-linecap="round"/><path d="M134 146 L140 162" fill="none" stroke="#e8ab80" stroke-width="13" stroke-linecap="round"/><circle cx="110" cy="152" r="11" fill="#33424e"/><path d="M110.4 143 L62.5 139 L61.5 161 L109.6 161 Z" fill="#2e6f6a"/><circle cx="62" cy="150" r="11" fill="#2e6f6a"/><circle cx="110" cy="152" r="9" fill="#2e6f6a"/><circle cx="74" cy="148" r="8" fill="#2e6f6a"/><path d="M74 148 L86 134 L100 130" fill="none" stroke="#e8ab80" stroke-width="9" stroke-linecap="round" stroke-linejoin="round"/><circle cx="100" cy="130" r="5.5" fill="#e8ab80"/><ellipse cx="140" cy="163" rx="8.5" ry="4.5" fill="#e8ab80"/><ellipse cx="104" cy="166" rx="8.5" ry="4.5" fill="#e8ab80"/><circle cx="33" cy="150" r="3.6" fill="#e8ab80"/><circle cx="46" cy="148" r="14" fill="#e8ab80"/><circle cx="52" cy="147" r="1.7" fill="#3a2b24"/><path d="M59.5 147 l4 2 l-4 2" fill="none" stroke="#d1926a" stroke-width="2.4" stroke-linecap="round" stroke-linejoin="round"/><path d="M32 148 Q32 132 46 132 Q60 132 60 148 Q53 139 46 140 Q39 139 32 148 Z" fill="#3a2b24"/><path d="M150 132 Q158 144 148 154" fill="none" stroke="#c9832e" stroke-width="3.4" stroke-linecap="round"/><path d="M149.4 147.1 L148 154 L154.5 151.5" fill="none" stroke="#c9832e" stroke-width="3.4" stroke-linecap="round" stroke-linejoin="round"/></svg>