<svg xmlns="http://www.w3.org/2000/svg" viewBox="0 0 200 196"><rect width="200" height="196" fill="#f4efe4"/><ellipse cx="100" cy="172" rx="74" ry="7" fill="#e6c079"/><path d="M100 88 L94 116 L92 140" fill="none" stroke="#d1926a" stroke-width="9" stroke-linecap="round" stroke-linejoin="round"/><path d="M104 126 L138 138 L152 166" fill="none" stroke="#d1926a" stroke-width="11" stroke-linecap="round" stroke-linejoin="round"/><path d="M98 126 L78 150" fill="none" stroke="#33424e" stroke-width="16" stroke-linecap="round"/><path d="M78 150 L62 166" fill="none" stroke="#e8ab80" stroke-width="13" stroke-linecap="round"/><circle cx="101" cy="124" r="11" fill="#33424e"/><path d="M110 123.8 L111 83.7 L89 84.3 L92 124.2 Z" fill="#2e6f6a"/><circle cx="100" cy="84" r="11" fill="#2e6f6a"/><circle cx="101" cy="124" r="9" fill="#2e6f6a"/><circle cx="100" cy="86" r="8" fill="#2e6f6a"/><path d="M100 86 L92 60 L84 40" fill="none" stroke="#e8ab80" stroke-width="9" stroke-linecap="round" stroke-linejoin="round"/><circle cx="84" cy="40" r="5.5" fill="#e8ab80"/><ellipse cx="152" cy="167" rx="8.5" ry="4.5" fill="#e8ab80"/><ellipse cx="62" cy="167" rx="8.5" ry="4.5" fill="#e8ab80"/><circle cx="83" cy="68" r="3.6" fill="#e8ab80"/><circle cx="96" cy="66" r="14" fill="#e8ab80"/><circle cx="102" cy="65" r="1.7" fill="#3a2b24"/><path d="M109.5 65 l4 2 l-4 2" fill="none" stroke="#d1926a" stroke-width="2.4" stroke-linecap="round" stroke-linejoin="round"/><path d="M82 66 Q82 50 96 50 Q110 50 110 66 Q103 57 96 58 Q89 57 82 66 Z" fill="#3a2b24"/><path d="M76 44 Q66 34 54 40" fill="none" stroke="#c9832e" stroke-width="3.4" stroke-linecap="round"/><path d="M60.9 38.9 L54 40 L58.6 45.3" fill="none" stroke="#c9832e" stroke-width="3.4" stroke-linecap="round" stroke-linejoin="round"/></svg>